<?xml version="1.0" standalone="no"?>
<!DOCTYPE svg PUBLIC "-//W3C//DTD SVG 1.1//EN" "http://www.w3.org/Graphics/SVG/1.1/DTD/svg11.dtd" >
<svg xmlns="http://www.w3.org/2000/svg" xmlns:xlink="http://www.w3.org/1999/xlink" version="1.1">
<metadata>
Created by FontForge 20190112 at Sat Jun 27 02:09:14 2015
 By Mark Brand
Copyright (c) 2015 by The Entente (AS&#38;EH). All rights reserved.
</metadata>
<defs>
<font id="BasisGrotesquePro-Light" horiz-adv-x="770" >
  <font-face 
    font-family="BasisGrotesquePro-Light"
    font-weight="300"
    font-stretch="normal"
    units-per-em="1000"
    panose-1="2 0 5 3 4 0 0 2 0 4"
    ascent="800"
    descent="-200"
    x-height="496"
    cap-height="700"
    bbox="-29 -218 1071 934"
    underline-thickness="50"
    underline-position="-345"
    unicode-range="U+000D-FB04"
  />
<missing-glyph horiz-adv-x="365" 
d="M299 0h-266v666h266v-666zM66 633v-600h200v600h-200z" />
    <glyph glyph-name="uniFB01" unicode="fi" horiz-adv-x="514" 
d="M438 0h-58v452h-220v-452h-58v452h-79v44h79v103q0 71 36 111t106 40q28 0 47 -9l-9 -49q-19 8 -41 8q-35 0 -58 -25t-23 -71v-108h278v-496zM446 590h-74v80h74v-80z" />
    <glyph glyph-name="uniFB02" unicode="fl" horiz-adv-x="513" 
d="M102 452h-79v44h79v103q0 71 36 111t106 40q28 0 47 -9l-9 -49q-19 8 -41 8q-35 0 -58 -25t-23 -71v-108h121v-44h-121v-452h-58v452zM437 0h-58v700h58v-700z" />
    <glyph glyph-name="uniFB03" unicode="ffi" horiz-adv-x="786" 
d="M378 452h-218v-452h-58v452h-79v44h79v103q0 71 36 111t106 40q28 0 47 -9l-9 -49q-19 8 -41 8q-35 0 -58 -25t-23 -71v-108h218v103q0 71 36 111t106 40q27 0 47 -9l-9 -49q-21 8 -41 8q-37 0 -59 -24.5t-22 -71.5v-108h275v-496h-58v452h-217v-452h-58v452zM719 590
h-74v80h74v-80z" />
    <glyph glyph-name="uniFB04" unicode="ffl" horiz-adv-x="786" 
d="M102 452h-79v44h79v103q0 71 36 111t106 40q28 0 47 -9l-9 -49q-19 8 -41 8q-35 0 -58 -25t-23 -71v-108h218v103q0 71 36 111t106 40q27 0 47 -9l-9 -49q-21 8 -41 8q-37 0 -59 -24.5t-22 -71.5v-108h121v-44h-121v-452h-58v452h-218v-452h-58v452zM711 0h-58v700h58
v-700z" />
    <glyph glyph-name=".notdef" horiz-adv-x="365" 
d="M299 0h-266v666h266v-666zM66 633v-600h200v600h-200z" />
    <glyph glyph-name="glyph1" horiz-adv-x="0" 
 />
    <glyph glyph-name="glyph2" horiz-adv-x="333" 
 />
    <glyph glyph-name="glyph3" horiz-adv-x="0" 
 />
    <glyph glyph-name="glyph3" horiz-adv-x="0" 
 />
    <glyph glyph-name="uni000D" unicode="&#xd;" horiz-adv-x="288" 
 />
    <glyph glyph-name="space" unicode=" " horiz-adv-x="275" 
 />
    <glyph glyph-name="exclam" unicode="!" horiz-adv-x="258" 
d="M110 172l-11 315v213h60v-213l-11 -315h-38zM170 0h-82v84h82v-84z" />
    <glyph glyph-name="quotedbl" unicode="&#x22;" horiz-adv-x="308" 
d="M202 503l-13 149v48h64v-48l-13 -149h-38zM68 503l-13 149v48h64v-48l-13 -149h-38z" />
    <glyph glyph-name="numbersign" unicode="#" horiz-adv-x="658" 
d="M412 0h-56l43 232h-178l-43 -232h-56l43 232h-111v42h119l28 152h-127v42h135l43 232h56l-43 -232h178l43 232h56l-43 -232h111v-42h-119l-28 -152h127v-42h-135zM435 426h-178l-28 -152h178z" />
    <glyph glyph-name="dollar" unicode="$" horiz-adv-x="640" 
d="M354 -100h-60v88q-96 9 -159.5 66t-81.5 145l55 30q37 -173 186 -189v303q-207 47 -207 193q0 73 58 122q60 51 149 55v87h60v-89q75 -10 130 -53.5t78 -109.5l-48 -29q-44 122 -160 140v-275q112 -24 167 -69.5t55 -120.5q0 -84 -62 -141t-160 -65v-88zM516 187
q0 57 -39 91t-123 52v-290q74 7 118 48t44 99zM145 533q0 -94 149 -136v264q-67 -5 -108 -40t-41 -88z" />
    <glyph glyph-name="percent" unicode="%" horiz-adv-x="883" 
d="M541 37q-48 51 -48 124t48 124t121 51t121 -51t48 -124t-48 -124t-121 -51t-121 51zM578 251q-31 -34 -31 -90q0 -57 31 -91t84 -34t84 34t31 91q0 56 -31 90q-32 35 -84 35t-84 -35zM100 415q-48 51 -48 124q0 72 47 124q48 51 121 51q74 0 122 -51t48 -124t-48 -124
t-122 -51t-120 51zM137 630q-31 -34 -31 -91t31 -91t83 -34q53 0 84 34q32 35 32 91q0 55 -32 90t-84 35t-83 -34zM679 669l-434 -666l-41 28l434 666z" />
    <glyph glyph-name="ampersand" unicode="&#x26;" horiz-adv-x="630" 
d="M499 114l89 -114h-70l-54 69q-77 -83 -190 -83q-91 0 -153 59q-60 58 -60 146q0 135 142 217q-55 73 -55 149q0 67 45 112t113 45q67 0 109 -37t42 -98q0 -56 -37.5 -96.5t-124.5 -83.5l-11 -6l183 -236q36 62 56 160l47 -26q-22 -102 -71 -177zM274 36q95 0 159 73
l-198 258q-59 -35 -87.5 -76.5t-28.5 -100.5q0 -70 45 -112q46 -42 110 -42zM202 556q0 -59 51 -122l18 8q72 32 102 63t30 73q0 36 -27.5 61t-69.5 25q-43 0 -73.5 -30.5t-30.5 -77.5z" />
    <glyph glyph-name="quotesingle" unicode="'" horiz-adv-x="187" 
d="M75 503l-13 149v48h64v-48l-13 -149h-38z" />
    <glyph glyph-name="parenleft" unicode="(" horiz-adv-x="325" 
d="M234 -148h-52q-106 187 -106 424t106 424h52q-98 -201 -98 -424t98 -424z" />
    <glyph glyph-name="parenright" unicode=")" horiz-adv-x="325" 
d="M144 -148h-52q98 201 98 424t-98 424h52q106 -188 106 -424t-106 -424z" />
    <glyph glyph-name="asterisk" unicode="*" horiz-adv-x="394" 
d="M163 700h68l-15 -110l88 67l34 -58l-103 -43l103 -43l-34 -58l-88 67l15 -110h-68l15 110l-88 -67l-34 58l103 43l-103 43l34 58l88 -67z" />
    <glyph glyph-name="plus" unicode="+" horiz-adv-x="486" 
d="M220 342h-172v46h172v172h46v-172h173v-46h-173v-173h-46v173z" />
    <glyph glyph-name="comma" unicode="," horiz-adv-x="176" 
d="M78 0h-30v82h80v-82l-63 -114l-16 6z" />
    <glyph glyph-name="hyphen" unicode="-" horiz-adv-x="445" 
d="M398 288h-350v46h350v-46z" />
    <glyph glyph-name="period" unicode="." horiz-adv-x="176" 
d="M128 0h-80v82h80v-82z" />
    <glyph glyph-name="slash" unicode="/" horiz-adv-x="474" 
d="M68 -30h-62l400 760h62z" />
    <glyph glyph-name="zero" unicode="0" horiz-adv-x="705" 
d="M568 612q84 -101 84 -263q0 -163 -84 -263t-216 -100q-131 0 -215 100q-83 101 -83 263q0 163 83 264q84 101 215 101q132 0 216 -102zM180 122q68 -84 172 -84q106 0 174 84q68 85 68 227q0 143 -68 228q-67 85 -174 85q-106 0 -173 -85q-67 -83 -67 -228
q0 -142 68 -227z" />
    <glyph glyph-name="one" unicode="1" horiz-adv-x="344" 
d="M55 560v52q110 0 155 88h50v-700h-58v616q-47 -56 -147 -56z" />
    <glyph glyph-name="two" unicode="2" horiz-adv-x="573" 
d="M57 0v42l271 268q58 57 82.5 104t24.5 102q0 67 -43 106.5t-118 39.5q-67 0 -111.5 -43.5t-44.5 -112.5q0 -24 8 -45l-54 -9q-12 34 -12 62q0 80 60 140t156 60q101 0 159 -55q58 -54 58 -139q0 -64 -28 -119q-28 -54 -100 -128l-213 -213h346v-60h-441z" />
    <glyph glyph-name="three" unicode="3" horiz-adv-x="574" 
d="M70 238l55 -15q-5 -22 -5 -40q0 -64 47 -104.5t124 -40.5q74 0 121 42.5t47 115.5q0 74 -56 113t-149 39v56q83 0 127 38.5t44 96.5q0 59 -38.5 91t-105.5 32q-61 0 -101.5 -37.5t-40.5 -96.5q0 -15 5 -27l-55 -9q-8 21 -8 45q0 74 57 125q56 52 144 52q92 0 146.5 -47.5
t54.5 -121.5q0 -53 -31 -97.5t-91 -64.5q71 -19 114.5 -66.5t43.5 -114.5q0 -99 -64 -157q-65 -59 -164 -59q-103 0 -168 59q-63 59 -63 136q0 33 10 57z" />
    <glyph glyph-name="four" unicode="4" horiz-adv-x="564" 
d="M390 150h-341v52l341 498h60v-498h80v-52h-80v-150h-60v150zM390 202v406l-279 -406h279z" />
    <glyph glyph-name="five" unicode="5" horiz-adv-x="584" 
d="M115 307l-52 15l36 378h389v-52h-340l-30 -272q70 102 188 102q105 0 164 -68q60 -68 60 -176q0 -109 -68 -179q-68 -69 -177 -69q-103 0 -164 57q-62 57 -62 135q0 25 8 49l54 -13q-4 -15 -4 -31q0 -68 45 -106.5t123 -38.5q82 0 133 54q52 53 52 142q0 91 -46.5 140.5
t-130.5 49.5q-58 0 -105 -35t-73 -82z" />
    <glyph glyph-name="six" unicode="6" horiz-adv-x="596" 
d="M508 500l-56 13q7 17 7 40q0 52 -35 80.5t-103 28.5q-91 0 -147 -90q-55 -90 -60 -236q29 57 84 89.5t117 32.5q99 0 165 -66t66 -167q0 -99 -68 -170q-68 -69 -172 -69q-119 0 -185.5 84.5t-66.5 238.5q0 127 42 230q32 81 92 128t132 47q89 0 143 -45t54 -117
q0 -26 -9 -52zM306 406q-76 0 -131 -50q-53 -50 -53 -134t53 -134q55 -50 130 -50q76 0 129 50q52 49 52 134q0 84 -53 134t-127 50z" />
    <glyph glyph-name="seven" unicode="7" horiz-adv-x="530" 
d="M487 700v-46l-289 -654h-58l289 648h-386v52h444z" />
    <glyph glyph-name="eight" unicode="8" horiz-adv-x="563" 
d="M56 194q0 59 32 106.5t85 74.5q-43 24 -69 67t-26 91q0 79 58 130t146 51q86 0 145 -51t59 -130q0 -48 -26 -91t-69 -67q53 -27 85 -74.5t32 -106.5q0 -92 -64 -150t-162 -58t-162 58t-64 150zM448 193q0 69 -48 112q-47 43 -118 43q-69 0 -118 -43q-48 -43 -48 -112
t46 -112t120 -43t120 43t46 112zM136 530q0 -61 40.5 -97.5t105.5 -36.5q66 0 106 36.5t40 97.5q0 60 -41 97t-105 37q-63 0 -104 -37q-42 -36 -42 -97z" />
    <glyph glyph-name="nine" unicode="9" horiz-adv-x="606" 
d="M98 200l56 -13q-7 -18 -7 -40q0 -51 35.5 -80t102.5 -29q95 0 147 87q54 89 60 236q-24 -57 -76.5 -88t-119.5 -31q-100 0 -168 66t-68 167q0 99 67 169t173 70q121 0 186.5 -84.5t65.5 -238.5q0 -125 -42 -230q-32 -82 -92 -128.5t-132 -46.5q-89 0 -143 45t-54 117
q0 28 9 52zM300 294q75 0 130 50q54 50 54 134t-54 134q-55 50 -130 50t-128 -50q-52 -49 -52 -134t52 -134q53 -50 128 -50z" />
    <glyph glyph-name="colon" unicode=":" horiz-adv-x="176" 
d="M128 390h-80v82h80v-82zM128 0h-80v82h80v-82z" />
    <glyph glyph-name="semicolon" unicode=";" horiz-adv-x="176" 
d="M128 390h-80v82h80v-82zM78 0h-30v82h80v-82l-63 -114l-16 6z" />
    <glyph glyph-name="less" unicode="&#x3c;" horiz-adv-x="497" 
d="M439 84l-391 194v64l391 194v-58l-343 -168l343 -168v-58z" />
    <glyph glyph-name="equal" unicode="=" horiz-adv-x="486" 
d="M439 422h-391v46h391v-46zM439 232h-391v46h391v-46z" />
    <glyph glyph-name="greater" unicode="&#x3e;" horiz-adv-x="497" 
d="M59 536l391 -194v-64l-391 -194v58l343 168l-343 168v58z" />
    <glyph glyph-name="question" unicode="?" horiz-adv-x="524" 
d="M294 0h-82v84h82v-84zM282 175h-60v13q0 58 17 94q18 35 69 79q62 54 82 85q23 35 23 86q0 60 -42.5 96t-112.5 36q-66 0 -108 -40t-42 -109q0 -22 8 -44l-54 -10q-12 25 -12 60q0 77 57 135t151 58q99 0 156 -51q57 -49 57 -126q0 -62 -26 -106q-24 -42 -97 -105
q-37 -32 -51 -62q-15 -30 -15 -89z" />
    <glyph glyph-name="at" unicode="@" horiz-adv-x="937" 
d="M638 -43l27 -44q-91 -65 -222 -65q-121 0 -217 62q-78 48 -125 140t-47 219q0 188 124 316q124 129 312 129q161 0 270 -91q55 -46 86.5 -119t31.5 -163q0 -137 -69 -226q-67 -88 -158 -88q-40 0 -64 22.5t-24 60.5q0 1 2 23l2 12q-22 -52 -70 -85q-46 -33 -97 -33
q-70 0 -118 55q-48 56 -48 150q0 146 76 226q76 82 170 82q44 0 82 -26q38 -25 49 -69l13 79h56l-56 -384q-1 -5 -1 -17q0 -44 41 -44q58 0 108 69q50 70 50 188q0 145 -89 234q-89 90 -250 90q-147 0 -260 -114q-111 -114 -111 -277q0 -92 28.5 -164t77 -116t110 -66.5
t130.5 -22.5q102 0 180 57zM407 79q77 0 133 83q57 84 57 186q0 63 -30.5 100.5t-81.5 37.5q-73 0 -133 -66t-60 -182q0 -78 32 -118.5t83 -40.5z" />
    <glyph glyph-name="A" unicode="A" horiz-adv-x="636" 
d="M69 0h-63l279 700h66l279 -700h-63l-86 217h-326zM174 267h288l-129 329l-15 42l-15 -42z" />
    <glyph glyph-name="B" unicode="B" horiz-adv-x="625" 
d="M330 0h-242v700h239q99 0 158 -48q59 -47 59 -116q0 -60 -35.5 -103t-89.5 -60q150 -44 150 -175q0 -87 -69 -143q-68 -55 -170 -55zM317 346h-169v-294h169q84 0 137 37q55 37 55 110q0 72 -52 109.5t-140 37.5zM325 648h-177v-250h177q73 0 116 31.5t43 93.5
q0 63 -43 94t-116 31z" />
    <glyph glyph-name="C" unicode="C" horiz-adv-x="735" 
d="M633 195l44 -31q-51 -90 -119.5 -134t-170.5 -44q-142 0 -237 104q-94 104 -94 260q0 151 100 257q101 107 236 107q96 0 171.5 -47t114.5 -131l-45 -32q-47 85 -104.5 121.5t-137.5 36.5q-114 0 -195 -91q-80 -92 -80 -221q0 -135 76 -223q77 -89 198 -89q84 0 142 38
t101 119z" />
    <glyph glyph-name="D" unicode="D" horiz-adv-x="671" 
d="M271 0h-183v700h183q155 0 249 -96q95 -95 95 -255q0 -159 -95 -254t-249 -95zM148 52h114q137 0 215 76.5t78 220.5q0 148 -80 223q-79 76 -213 76h-114v-596z" />
    <glyph glyph-name="E" unicode="E" horiz-adv-x="572" 
d="M505 0h-417v700h414v-52h-354v-260h326v-52h-326v-284h357v-52z" />
    <glyph glyph-name="F" unicode="F" horiz-adv-x="575" 
d="M148 0h-60v700h428v-52h-368v-280h338v-52h-338v-316z" />
    <glyph glyph-name="G" unicode="G" horiz-adv-x="751" 
d="M680 0h-41l-23 134q-73 -148 -231 -148q-147 0 -238 103t-91 261q0 152 99 258q100 106 237 106q95 0 168.5 -44.5t115.5 -126.5l-46 -33q-80 152 -239 152q-111 0 -193 -91q-82 -89 -82 -221q0 -136 75 -224t195 -88q96 0 161 71q64 71 73 178h-255v52h315v-339z" />
    <glyph glyph-name="H" unicode="H" horiz-adv-x="676" 
d="M148 0h-60v700h60v-317h380v317h60v-700h-60v331h-380v-331z" />
    <glyph glyph-name="I" unicode="I" horiz-adv-x="235" 
d="M148 0h-60v700h60v-700z" />
    <glyph glyph-name="J" unicode="J" horiz-adv-x="520" 
d="M394 700h60v-505q0 -94 -56 -152q-56 -57 -146 -57q-91 0 -146 55t-55 149l60 -7q0 -68 40 -106.5t101 -38.5q66 0 104 41t38 115v506z" />
    <glyph glyph-name="K" unicode="K" horiz-adv-x="593" 
d="M148 0h-60v700h60v-343l70 75l256 268h74l-241 -256l264 -444h-70l-238 397l-115 -120v-277z" />
    <glyph glyph-name="L" unicode="L" horiz-adv-x="555" 
d="M505 0h-417v700h60v-648h357v-52z" />
    <glyph glyph-name="M" unicode="M" horiz-adv-x="844" 
d="M146 0h-58v700h68l266 -654l266 654h68v-700h-58v595l-36 -96l-206 -499h-68l-206 498l-36 97v-595z" />
    <glyph glyph-name="N" unicode="N" horiz-adv-x="684" 
d="M146 0h-58v700h64l356 -562q25 -42 30 -55v617h58v-700h-64l-356 562q-22 37 -30 55v-617z" />
    <glyph glyph-name="O" unicode="O" 
d="M619 613q95 -101 95 -263q0 -163 -95 -264q-94 -100 -235 -100q-140 0 -234 100t-94 264q0 163 94 263q95 101 234 101q140 0 235 -101zM191 124q77 -86 194 -86q118 0 193 86q76 86 76 225q0 140 -76 226q-75 87 -193 87q-117 0 -194 -87q-75 -87 -75 -226
q0 -138 75 -225z" />
    <glyph glyph-name="P" unicode="P" horiz-adv-x="660" 
d="M148 0h-60v700h281q109 0 173.5 -58t64.5 -157q0 -98 -65 -157q-64 -58 -173 -58h-221v-270zM367 648h-219v-326h219q88 0 134 42t46 121t-46 121t-134 42z" />
    <glyph glyph-name="Q" unicode="Q" 
d="M714 350q0 -128 -60 -220q-58 -90 -158 -125q37 -54 82 -99l-45 -40q-61 62 -99 124q-19 -4 -49 -4q-141 0 -235 100t-94 264q0 163 94 263q95 101 234 101q140 0 235 -101t95 -263zM191 124q77 -86 194 -86q118 0 193 86q76 86 76 225q0 140 -76 226q-75 87 -193 87
q-117 0 -194 -87q-75 -87 -75 -226q0 -138 75 -225z" />
    <glyph glyph-name="R" unicode="R" horiz-adv-x="616" 
d="M573 0h-64l-177 312h-184v-312h-60v700h268q100 0 156 -55q57 -55 57 -139q0 -76 -44.5 -126t-127.5 -64zM341 648h-193v-284h193q168 0 168 142t-168 142z" />
    <glyph glyph-name="S" unicode="S" horiz-adv-x="640" 
d="M145 536q0 -58 51 -93.5t155 -54.5q225 -44 225 -194q0 -90 -71 -149t-181 -59t-181 60t-90 153l55 30q19 -92 74 -141.5t142 -49.5t140 44q52 43 52 105t-48.5 98.5t-146.5 54.5q-116 21 -175 68t-59 128q0 78 64 127q65 51 162 51q90 0 157 -45t92 -121l-48 -29
q-25 69 -76.5 106t-123.5 37q-75 0 -122 -34.5t-47 -91.5z" />
    <glyph glyph-name="T" unicode="T" horiz-adv-x="533" 
d="M237 648h-218v52h496v-52h-218v-648h-60v648z" />
    <glyph glyph-name="U" unicode="U" horiz-adv-x="653" 
d="M518 700h60v-465q0 -117 -67 -183t-184 -66t-184 66t-67 183v465h60v-464q0 -89 53 -144q53 -54 138 -54t138 54q53 55 53 144v464z" />
    <glyph glyph-name="V" unicode="V" horiz-adv-x="594" 
d="M332 0h-70l-260 700h60l209 -571q18 -49 26 -77l26 77l209 571h60z" />
    <glyph glyph-name="W" unicode="W" horiz-adv-x="871" 
d="M809 700h58l-200 -700h-64l-167 635l-167 -635h-64l-200 700h58l155 -561q17 -67 19 -77l18 78l147 560h68l147 -560q13 -52 18 -78l19 77z" />
    <glyph glyph-name="X" unicode="X" horiz-adv-x="550" 
d="M37 700h69l168 -278l173 278h66l-204 -319l237 -381h-68l-204 332l-203 -332h-68l237 376z" />
    <glyph glyph-name="Y" unicode="Y" horiz-adv-x="525" 
d="M293 0h-60v292l-229 408h64l173 -318q13 -21 22 -46l22 46l173 318h64l-229 -408v-292z" />
    <glyph glyph-name="Z" unicode="Z" horiz-adv-x="581" 
d="M457 646h-402v54h465v-54l-410 -592h427v-54h-495v52z" />
    <glyph glyph-name="bracketleft" unicode="[" horiz-adv-x="313" 
d="M260 -150h-172v850h172v-50h-114v-750h114v-50z" />
    <glyph glyph-name="backslash" unicode="\" horiz-adv-x="474" 
d="M6 730h62l400 -760h-62z" />
    <glyph glyph-name="bracketright" unicode="]" horiz-adv-x="313" 
d="M54 700h172v-850h-172v50h114v750h-114v50z" />
    <glyph glyph-name="asciicircum" unicode="^" horiz-adv-x="413" 
d="M21 457l155 243h62l155 -243h-52l-134 205l-134 -205h-52z" />
    <glyph glyph-name="underscore" unicode="_" horiz-adv-x="422" 
d="M414 -53h-406v46h406v-46z" />
    <glyph glyph-name="grave" unicode="`" horiz-adv-x="275" 
d="M63 700h84l66 -138h-50z" />
    <glyph glyph-name="a" unicode="a" horiz-adv-x="528" 
d="M482 0h-58q-32 40 -32 107q-18 -52 -69 -86q-50 -35 -106 -35q-75 0 -120 42t-45 109q0 64 45.5 105t119.5 53l177 29v24q0 53 -34 81.5t-95 28.5t-97 -26.5t-36 -66.5q0 -5 2 -15l-47 -16q-7 17 -7 38q0 59 52 98q52 40 133 40q89 0 138 -41.5t49 -114.5v-230
q0 -73 30 -124zM222 40q79 0 125 64q47 65 47 145v25l-167 -28q-56 -10 -86.5 -38t-30.5 -70q0 -43 31 -70.5t81 -27.5z" />
    <glyph glyph-name="b" unicode="b" horiz-adv-x="594" 
d="M134 0h-58v700h58v-298q28 49 79.5 78.5t112.5 29.5q97 0 161 -76q65 -76 65 -186q0 -113 -67 -187q-67 -75 -171 -75q-59 0 -109 32q-50 33 -71 78v-96zM310 460q-80 0 -131 -60t-51 -152t50 -153q51 -59 132 -59t131 59q51 59 51 153t-51 153t-131 59z" />
    <glyph glyph-name="c" unicode="c" horiz-adv-x="550" 
d="M469 157l43 -28q-33 -67 -90.5 -105t-128.5 -38q-109 0 -180 74t-71 188q0 113 73 187q74 75 178 75q77 0 133.5 -36t84.5 -100l-44 -28q-54 112 -172 112q-83 0 -138 -58q-55 -56 -55 -152q0 -94 54 -152t139 -58q111 0 174 119z" />
    <glyph glyph-name="d" unicode="d" horiz-adv-x="594" 
d="M460 700h58v-700h-58v97q-24 -49 -72.5 -80t-107.5 -31q-104 0 -171 75q-67 74 -67 187q0 112 67 186q67 76 167 76q61 0 109.5 -28.5t74.5 -80.5v299zM152 95q51 -59 132 -59t131 59q51 60 51 153q0 94 -51 152q-50 60 -131 60t-132 -59q-50 -59 -50 -153t50 -153z" />
    <glyph glyph-name="e" unicode="e" horiz-adv-x="566" 
d="M523 262v-19h-423q3 -88 54 -148q51 -59 133 -59q123 0 180 120l42 -25q-70 -145 -225 -145q-101 0 -172 74q-70 74 -70 188q0 113 71 187q71 75 174 75q109 0 172 -69q64 -68 64 -179zM287 460q-71 0 -124 -48q-52 -48 -63 -119h360q-2 80 -52 123q-52 44 -121 44z" />
    <glyph glyph-name="f" unicode="f" horiz-adv-x="305" 
d="M102 452h-79v44h79v103q0 71 36 111t106 40q28 0 47 -9l-9 -49q-19 8 -41 8q-35 0 -58 -25t-23 -71v-108h121v-44h-121v-452h-58v452z" />
    <glyph glyph-name="g" unicode="g" horiz-adv-x="576" 
d="M84 -30l53 -15q-8 -21 -8 -37q0 -40 40.5 -63t110.5 -23q171 0 171 200v76q-61 -100 -180 -100q-99 0 -164 68t-65 183q0 118 66 184q67 67 163 67q125 0 180 -94v80h58v-464q0 -119 -58.5 -184.5t-170.5 -65.5q-97 0 -153 37.5t-56 98.5q0 29 13 52zM409 405
q-48 55 -130 55t-130 -55q-47 -55 -47 -146t47 -147q48 -54 130 -54t130 54q48 56 48 147q0 92 -48 146z" />
    <glyph glyph-name="h" unicode="h" horiz-adv-x="564" 
d="M489 337v-337h-58v331q0 62 -35.5 95.5t-95.5 33.5q-65 0 -116 -53q-50 -53 -50 -132v-275h-58v700h58v-301q27 52 75.5 81.5t106.5 29.5q81 0 127 -45.5t46 -127.5z" />
    <glyph glyph-name="i" unicode="i" horiz-adv-x="210" 
d="M134 0h-58v496h58v-496zM142 590h-74v80h74v-80z" />
    <glyph glyph-name="j" unicode="j" horiz-adv-x="211" 
d="M-29 -203l8 52q19 -8 41 -8q27 0 42 18.5t15 50.5v586h58v-573q0 -134 -108 -134q-32 0 -56 8zM143 590h-74v80h74v-80z" />
    <glyph glyph-name="k" unicode="k" horiz-adv-x="481" 
d="M134 0h-58v700h58v-410l215 206h75l-176 -170l209 -326h-65l-185 286l-73 -71v-215z" />
    <glyph glyph-name="l" unicode="l" horiz-adv-x="210" 
d="M134 0h-58v700h58v-700z" />
    <glyph glyph-name="m" unicode="m" horiz-adv-x="803" 
d="M727 369v-369h-58v355q0 105 -105 105q-57 0 -96 -53t-39 -146v-261h-58v351q0 50 -26 79.5t-74 29.5q-56 0 -97 -53q-40 -52 -40 -141v-266h-58v496h58v-83q19 42 60.5 69.5t90.5 27.5q48 0 85 -26.5t51 -73.5q24 45 66 72.5t91 27.5q67 0 108 -38t41 -103z" />
    <glyph glyph-name="n" unicode="n" horiz-adv-x="558" 
d="M482 337v-337h-58v331q0 61 -35.5 95t-94.5 34q-64 0 -112 -53t-48 -126v-281h-58v496h58v-92q27 49 73.5 77.5t100.5 28.5q75 0 124 -43q50 -42 50 -130z" />
    <glyph glyph-name="o" unicode="o" horiz-adv-x="592" 
d="M476 438q74 -71 74 -190q0 -120 -75 -191q-74 -71 -180 -71q-105 0 -179 71t-74 191t74 191t179 71q106 0 181 -72zM155 96q55 -60 141 -60q84 0 140 60q56 61 56 152t-56 152q-56 60 -140 60q-86 0 -141 -60q-55 -59 -55 -152t55 -152z" />
    <glyph glyph-name="p" unicode="p" horiz-adv-x="594" 
d="M134 -204h-58v700h58v-100q24 50 74 82t110 32q101 0 167 -76q67 -74 67 -186t-66 -187t-169 -75q-61 0 -109.5 27t-73.5 76v-293zM441 400q-50 60 -131 60t-132 -60q-50 -59 -50 -152q0 -92 50 -153q51 -59 132 -59t131 59q51 59 51 153t-51 152z" />
    <glyph glyph-name="q" unicode="q" horiz-adv-x="594" 
d="M460 496h58v-700h-58v294q-54 -104 -180 -104q-102 0 -170 75q-68 76 -68 187q0 113 67 187q67 75 171 75q62 0 110.5 -29t69.5 -77v92zM415 400q-50 60 -131 60t-132 -59q-50 -59 -50 -153t50 -153q51 -59 132 -59t131 59q51 60 51 153q0 94 -51 152z" />
    <glyph glyph-name="r" unicode="r" horiz-adv-x="334" 
d="M318 505l-10 -50q-18 5 -37 5q-55 0 -96 -56t-41 -133v-271h-58v496h58v-94q18 47 57 77.5t86 30.5q23 0 41 -5z" />
    <glyph glyph-name="s" unicode="s" horiz-adv-x="478" 
d="M130 381q0 -71 140 -97q164 -30 164 -144q0 -62 -48 -108q-47 -46 -133 -46q-74 0 -127 38.5t-78 103.5l50 30q41 -122 155 -122q57 0 90 27.5t33 73.5q0 43 -32 67t-102 35q-166 28 -166 144q0 57 47 92q49 35 118 35q138 0 188 -119l-47 -27q-38 96 -140 96
q-49 0 -80.5 -21.5t-31.5 -57.5z" />
    <glyph glyph-name="t" unicode="t" horiz-adv-x="334" 
d="M116 452h-87v44h87v134h58v-134h124v-44h-124v-336q0 -80 71 -80q17 0 37 6l5 -48q-24 -8 -54 -8q-53 0 -85 34.5t-32 98.5v333z" />
    <glyph glyph-name="u" unicode="u" horiz-adv-x="556" 
d="M76 164v332h58v-331q0 -60 35 -94.5t93 -34.5q66 0 112 54q48 54 48 138v268h58v-496h-58v91q-25 -48 -71 -76.5t-99 -28.5q-79 0 -127.5 45.5t-48.5 132.5z" />
    <glyph glyph-name="v" unicode="v" horiz-adv-x="474" 
d="M403 496h63l-198 -496h-62l-198 496h63l166 -432z" />
    <glyph glyph-name="w" unicode="w" horiz-adv-x="676" 
d="M305 496h66l120 -436l120 436h58l-144 -496h-67l-120 436l-120 -436h-67l-144 496h58l120 -436z" />
    <glyph glyph-name="x" unicode="x" horiz-adv-x="422" 
d="M31 496h65l117 -186l118 186h63l-148 -227l175 -269h-62l-146 223l-145 -223h-69l181 265z" />
    <glyph glyph-name="y" unicode="y" horiz-adv-x="477" 
d="M56 -201l10 53q21 -8 36 -8q43 0 64 53l42 103l-203 496h65l168 -421l170 421h63l-254 -616q-21 -48 -46.5 -69t-66.5 -21q-26 0 -48 9z" />
    <glyph glyph-name="z" unicode="z" horiz-adv-x="474" 
d="M417 446l-311 -396h325v-50h-388v50l311 396h-303v50h366v-50z" />
    <glyph glyph-name="braceleft" unicode="{" horiz-adv-x="359" 
d="M58 248v54q42 0 59 22t17 78v137q0 85 33 123t108 38h31v-50h-31q-40 0 -61.5 -23.5t-21.5 -68.5v-157q0 -55 -14 -81.5t-51 -44.5q37 -18 51 -44t14 -82v-157q0 -45 21.5 -68.5t61.5 -23.5h31v-50h-31q-75 0 -108 38t-33 123v137q0 57 -17 78.5t-59 21.5z" />
    <glyph glyph-name="bar" unicode="|" horiz-adv-x="235" 
d="M148 -110h-60v850h60v-850z" />
    <glyph glyph-name="braceright" unicode="}" horiz-adv-x="359" 
d="M302 302v-54q-42 0 -59 -21.5t-17 -78.5v-137q0 -85 -33 -123t-108 -38h-31v50h31q40 0 61.5 23.5t21.5 68.5v157q0 56 14 82t51 44q-37 18 -51 44.5t-14 81.5v157q0 45 -21.5 68.5t-61.5 23.5h-31v50h31q75 0 108 -38t33 -123v-137q0 -56 17 -78t59 -22z" />
    <glyph glyph-name="asciitilde" unicode="~" horiz-adv-x="427" 
d="M138 341q-15 0 -24 -9.5t-9 -22.5q0 -11 6 -22l-53 -11q-10 13 -10 40q0 35 25 55.5t62 20.5q53 0 88 -33t66 -33q15 0 24 9.5t9 22.5q0 12 -6 22l53 11q10 -13 10 -40q0 -35 -25 -55.5t-62 -20.5q-31 -1 -60.5 16t-53 34t-40.5 16z" />
    <glyph glyph-name="uni00A0" unicode="&#xa0;" horiz-adv-x="275" 
 />
    <glyph glyph-name="exclamdown" unicode="&#xa1;" horiz-adv-x="258" 
d="M148 324l11 -315v-213h-60v213l11 315h38zM88 496h82v-84h-82v84z" />
    <glyph glyph-name="cent" unicode="&#xa2;" horiz-adv-x="562" 
d="M477 157l43 -28q-62 -127 -192 -141v-98h-60v98q-96 10 -158 83q-60 73 -60 177q0 102 62 175q63 72 156 84v113h60v-111q68 -6 117 -41t74 -94l-44 -28q-47 100 -147 111v-417q92 11 149 117zM110 248q0 -84 43 -140.5t115 -67.5v415q-71 -12 -114.5 -68t-43.5 -139z
" />
    <glyph glyph-name="sterling" unicode="&#xa3;" horiz-adv-x="556" 
d="M127 324h-94v48h81q-26 76 -26 130q0 98 61 155q62 57 155 57q94 0 150 -47t56 -120q0 -38 -13 -71l-56 10q11 33 11 59q0 48 -40 82q-41 35 -109 35q-70 0 -112.5 -43.5t-42.5 -120.5q0 -42 24 -126h204v-48h-191q12 -54 12 -90q0 -88 -56 -180h357v-54h-426v38
q67 97 67 193q0 49 -12 93z" />
    <glyph glyph-name="currency" unicode="&#xa4;" horiz-adv-x="619" 
d="M532 350q0 -80 -43 -135l61 -62l-43 -43l-62 61q-61 -44 -136 -44t-134 44l-62 -61l-43 43l61 62q-43 55 -43 135t43 135l-61 62l43 43l62 -61q61 44 135 44t135 -44l62 61l43 -43l-61 -62q43 -55 43 -135zM193 227q45 -47 116 -47q72 0 117 47q46 47 46 122
q0 76 -46 123q-45 48 -117 48q-71 0 -116 -48q-45 -46 -45 -123q0 -75 45 -122z" />
    <glyph glyph-name="yen" unicode="&#xa5;" horiz-adv-x="533" 
d="M237 292h-149v46h123l-195 362h65l165 -315q11 -21 21 -47l21 47l165 315h65l-195 -362h124v-46h-150v-88h150v-46h-150v-158h-60v158h-149v46h149v88z" />
    <glyph glyph-name="brokenbar" unicode="&#xa6;" horiz-adv-x="235" 
d="M148 740v-360h-60v360h60zM88 -110v360h60v-360h-60z" />
    <glyph glyph-name="section" unicode="&#xa7;" horiz-adv-x="511" 
d="M449 293q0 -68 -58 -111q54 -44 54 -118q0 -73 -54 -115t-131 -42q-146 0 -203 129l48 34q45 -111 157 -111q53 0 89 27.5t36 74.5q0 48 -36.5 78.5t-129.5 51.5q-77 19 -118 56t-41 88q0 65 58 107q-54 48 -54 115q0 73 54 115t131 42q145 0 203 -129l-48 -34
q-45 111 -157 111q-54 0 -89.5 -27.5t-35.5 -76.5q0 -46 37.5 -77.5t128.5 -51.5q86 -20 122.5 -52t36.5 -84zM256 380q-55 11 -97 34q-37 -27 -37 -70q0 -38 29.5 -61t101.5 -42q43 -10 94 -32q42 31 42 78q0 33 -31 55t-102 38z" />
    <glyph glyph-name="dieresis" unicode="&#xa8;" horiz-adv-x="367" 
d="M298 594h-80v76h80v-76zM150 594h-80v76h80v-76z" />
    <glyph glyph-name="copyright" unicode="&#xa9;" horiz-adv-x="848" 
d="M166 92q-106 106 -106 257q0 152 106 258q107 107 257 107q151 0 258 -107t107 -258q0 -150 -107 -257q-106 -106 -258 -106q-151 0 -257 106zM200 574q-92 -94 -92 -225q0 -130 92 -224q92 -93 224 -93t224 93q92 94 92 224q0 131 -92 225q-91 94 -224 94t-224 -94z
M564 278l32 -21q-27 -52 -70.5 -81.5t-97.5 -29.5q-88 0 -144 57q-54 59 -54 147q0 86 56 145q57 59 139 59q60 0 104.5 -28t65.5 -78l-32 -21q-44 86 -138 86q-61 0 -105 -45q-43 -44 -43 -118q0 -73 42 -118q44 -44 108 -44q89 0 137 90z" />
    <glyph glyph-name="ordfeminine" unicode="&#xaa;" horiz-adv-x="373" 
d="M354 300h-51q-22 25 -22 72q-14 -36 -46.5 -57.5t-70.5 -21.5q-50 0 -82.5 30t-32.5 75q0 92 112 110l120 19v12q0 76 -81 76q-38 0 -59.5 -15t-21.5 -40q0 -7 1 -10l-47 -16q-5 12 -5 27q0 40 38 68t94 28q64 0 98.5 -29.5t34.5 -82.5v-156q0 -55 21 -89zM167 339
q55 0 84 39q30 40 30 93v14l-109 -17q-71 -12 -71 -67q0 -27 19 -44.5t47 -17.5z" />
    <glyph glyph-name="guillemotleft" unicode="&#xab;" horiz-adv-x="471" 
d="M213 275l152 194h70l-151 -194l151 -194h-70zM48 275l152 194h70l-151 -194l151 -194h-70z" />
    <glyph glyph-name="logicalnot" unicode="&#xac;" horiz-adv-x="518" 
d="M442 390v-182h-62v132h-332v50h394z" />
    <glyph glyph-name="uni00AD" unicode="&#xad;" horiz-adv-x="445" 
d="M398 288h-350v46h350v-46z" />
    <glyph glyph-name="registered" unicode="&#xae;" horiz-adv-x="848" 
d="M570 151h-50l-98 173h-87v-173h-46v398h159q57 0 90.5 -31t33.5 -82q0 -43 -27 -71.5t-74 -37.5zM446 508h-111v-145h111q38 0 59.5 19.5t21.5 52.5q0 34 -21.5 53.5t-59.5 19.5zM166 92q-106 106 -106 257q0 152 106 258q107 107 257 107q151 0 258 -107t107 -258
q0 -150 -107 -257q-106 -106 -258 -106q-151 0 -257 106zM200 574q-92 -94 -92 -225q0 -130 92 -224q92 -93 224 -93t224 93q92 94 92 224q0 131 -92 225q-91 94 -224 94t-224 -94z" />
    <glyph glyph-name="overscore" unicode="&#xaf;" horiz-adv-x="302" 
d="M254 608h-206v54h206v-54z" />
    <glyph glyph-name="degree" unicode="&#xb0;" horiz-adv-x="359" 
d="M82 483q-38 40 -38 96t38 96q39 39 97 39q59 0 98 -39t39 -96t-39 -96t-98 -39q-58 0 -97 39zM116 642q-24 -26 -24 -63t24 -63q26 -26 64 -26q39 0 63 26q25 26 25 63t-25 63q-24 26 -63 26q-38 0 -64 -26z" />
    <glyph glyph-name="plusminus" unicode="&#xb1;" horiz-adv-x="486" 
d="M220 319h-172v46h172v172h46v-172h173v-46h-173v-173h-46v173zM439 0h-391v46h391v-46z" />
    <glyph glyph-name="uni00B2" unicode="&#xb2;" horiz-adv-x="334" 
d="M62 350v36l130 126q29 28 39 48.5t10 47.5q0 25 -18 41t-48 16q-29 0 -47.5 -17.5t-18.5 -45.5q0 -15 4 -23l-43 -6q-6 13 -6 33q0 41 31 71t80 30q52 0 83 -27.5t31 -70.5q0 -33 -15 -60t-51 -64l-91 -89h161v-46h-231z" />
    <glyph glyph-name="uni00B3" unicode="&#xb3;" horiz-adv-x="335" 
d="M58 474l42 -10q-3 -9 -3 -19q0 -26 21.5 -42t54.5 -16q72 0 72 68q0 30 -27 47t-71 17v39q80 0 80 61q0 21 -16.5 33.5t-43.5 12.5t-44.5 -14.5t-17.5 -38.5q0 -4 2 -16l-42 -5q-4 12 -4 28q0 37 29.5 62.5t76.5 25.5q48 0 78 -24t30 -61q0 -58 -55 -80q31 -9 51 -32.5
t20 -55.5q0 -51 -32.5 -81t-85.5 -30t-87 30t-34 70q0 15 6 31z" />
    <glyph glyph-name="acute" unicode="&#xb4;" horiz-adv-x="275" 
d="M113 562h-50l66 138h84z" />
    <glyph glyph-name="mu" unicode="&#xb5;" horiz-adv-x="556" 
d="M134 -204h-58v700h58v-331q0 -60 35 -94.5t93 -34.5q66 0 112 54q48 54 48 138v268h58v-496h-58v91q-25 -48 -71 -76.5t-99 -28.5q-71 0 -120 38q2 -46 2 -61v-167z" />
    <glyph glyph-name="paragraph" unicode="&#xb6;" horiz-adv-x="595" 
d="M438 648h-78v-768h-60v450h-49q-91 0 -149 51t-58 134q0 85 58 134q58 51 149 51h307v-52h-60v-768h-60v768z" />
    <glyph glyph-name="middot" unicode="&#xb7;" horiz-adv-x="176" 
d="M128 318h-80v82h80v-82z" />
    <glyph glyph-name="cedilla" unicode="&#xb8;" horiz-adv-x="299" 
d="M97 -101l-28 27l34 90h47l-38 -75q21 15 50 15q31 0 52 -22t21 -55q0 -38 -24.5 -60.5t-64.5 -22.5q-32 0 -54 16t-28 44l40 10q9 -30 44 -30q19 0 30 10.5t11 30.5q0 19 -11.5 30.5t-31.5 11.5q-26 0 -49 -20z" />
    <glyph glyph-name="uni00B9" unicode="&#xb9;" horiz-adv-x="238" 
d="M46 609v48q33 0 50.5 9.5t28.5 33.5h44v-350h-48v282q-21 -23 -75 -23z" />
    <glyph glyph-name="ordmasculine" unicode="&#xba;" horiz-adv-x="453" 
d="M227 293q-71 0 -124 49q-54 50 -54 133t54 132q55 50 123 50q69 0 124 -50q55 -49 55 -132t-54 -133q-53 -49 -124 -49zM97 475q0 -60 37 -100t92 -40q56 0 93 40q38 41 38 99q0 59 -38 100t-93 41t-92 -40t-37 -100z" />
    <glyph glyph-name="guillemotright" unicode="&#xbb;" horiz-adv-x="471" 
d="M258 275l-152 -194h-70l151 194l-151 194h70zM423 275l-152 -194h-70l151 194l-151 194h70z" />
    <glyph glyph-name="onequarter" unicode="&#xbc;" horiz-adv-x="743" 
d="M46 609v48q33 0 50.5 9.5t28.5 33.5h44v-350h-48v282q-21 -23 -75 -23zM598 669l-434 -666l-41 28l434 666zM595 70h-170v44l170 236h50v-236h40v-44h-40v-70h-50v70zM595 114v162l-120 -162h120z" />
    <glyph glyph-name="onehalf" unicode="&#xbd;" 
d="M46 609v48q33 0 50.5 9.5t28.5 33.5h44v-350h-48v282q-21 -23 -75 -23zM598 669l-434 -666l-41 28l434 666zM484 0v36l130 126q29 28 39 48.5t10 47.5q0 25 -18 41t-48 16t-48 -17.5t-18 -45.5q0 -16 4 -23l-43 -6q-6 13 -6 33q0 42 31 71.5t80 29.5q51 0 82.5 -27.5
t31.5 -70.5q0 -33 -15 -60.5t-51 -63.5l-91 -89h161v-46h-231z" />
    <glyph glyph-name="threequarters" unicode="&#xbe;" horiz-adv-x="812" 
d="M657 669l-434 -666l-41 28l434 666zM664 70h-170v44l170 236h50v-236h40v-44h-40v-70h-50v70zM664 114v162l-120 -162h120zM58 474l42 -10q-3 -9 -3 -19q0 -26 21.5 -42t54.5 -16q72 0 72 68q0 30 -27 47t-71 17v39q80 0 80 61q0 21 -16.5 33.5t-43.5 12.5t-44.5 -14.5
t-17.5 -38.5q0 -4 2 -16l-42 -5q-4 12 -4 28q0 37 29.5 62.5t76.5 25.5q48 0 78 -24t30 -61q0 -58 -55 -80q31 -9 51 -32.5t20 -55.5q0 -51 -32.5 -81t-85.5 -30t-87 30t-34 70q0 15 6 31z" />
    <glyph glyph-name="questiondown" unicode="&#xbf;" horiz-adv-x="524" 
d="M231 496h82v-84h-82v84zM243 321h60v-13q0 -59 -18 -95q-16 -34 -68 -78q-60 -51 -83 -86q-22 -34 -22 -85q0 -60 42.5 -96t112.5 -36q65 0 107.5 40t42.5 109q0 22 -8 44l54 10q12 -25 12 -60q0 -77 -58 -135q-57 -58 -150 -58q-100 0 -157 51q-56 50 -56 126
q0 63 25 106t98 105q38 32 51 61q15 31 15 90z" />
    <glyph glyph-name="Agrave" unicode="&#xc0;" horiz-adv-x="636" 
d="M69 0h-63l279 700h66l279 -700h-63l-86 217h-326zM174 267h288l-129 329l-15 42l-15 -42zM189 904h84l66 -138h-50z" />
    <glyph glyph-name="Aacute" unicode="&#xc1;" horiz-adv-x="636" 
d="M69 0h-63l279 700h66l279 -700h-63l-86 217h-326zM174 267h288l-129 329l-15 42l-15 -42zM347 766h-50l66 138h84z" />
    <glyph glyph-name="Acircumflex" unicode="&#xc2;" horiz-adv-x="636" 
d="M69 0h-63l279 700h66l279 -700h-63l-86 217h-326zM174 267h288l-129 329l-15 42l-15 -42zM246 766h-50l97 138h50l97 -138h-50l-72 78z" />
    <glyph glyph-name="Atilde" unicode="&#xc3;" horiz-adv-x="636" 
d="M69 0h-63l279 700h66l279 -700h-63l-86 217h-326zM174 267h288l-129 329l-15 42l-15 -42zM243 838q-15 0 -23.5 -9t-8.5 -22q0 -11 5 -23l-49 -10q-10 16 -10 40q0 35 23.5 54.5t59.5 19.5q35 1 63.5 -16.5t50 -35t40.5 -16.5q15 0 23.5 9t8.5 22q0 11 -5 23l49 10
q10 -19 10 -40q0 -35 -23 -54.5t-60 -19.5q-59 0 -90 33q-31 35 -64 35z" />
    <glyph glyph-name="Adieresis" unicode="&#xc4;" horiz-adv-x="636" 
d="M69 0h-63l279 700h66l279 -700h-63l-86 217h-326zM174 267h288l-129 329l-15 42l-15 -42zM432 798h-80v76h80v-76zM284 798h-80v76h80v-76z" />
    <glyph glyph-name="Aring" unicode="&#xc5;" horiz-adv-x="636" 
d="M69 0h-63l279 700h66l279 -700h-63l-86 217h-326zM174 267h288l-129 329l-15 42l-15 -42zM250 771q-28 29 -28 68t28 67t68 28t68 -28t28 -67t-28 -67t-68 -28t-68 27zM280 876q-14 -15 -14 -37.5t15 -37.5t37.5 -15t36.5 15q15 15 15 37.5t-15 37.5q-14 16 -36.5 16
t-38.5 -16z" />
    <glyph glyph-name="AE" unicode="&#xc6;" horiz-adv-x="908" 
d="M841 0h-417v217h-259l-96 -217h-63l310 700h522v-52h-354v-260h326v-52h-326v-284h357v-52zM424 648h-68l-169 -381h237v381z" />
    <glyph glyph-name="Ccedilla" unicode="&#xc7;" horiz-adv-x="735" 
d="M345 -101l-28 27l24 63q-125 18 -205 119q-80 103 -80 242q0 151 100 257q101 107 236 107q96 0 171.5 -47t114.5 -131l-45 -32q-47 85 -104.5 121.5t-137.5 36.5q-114 0 -195 -91q-80 -92 -80 -221q0 -135 76 -223q77 -89 198 -89q84 0 142 38t101 119l44 -31
q-51 -90 -119.5 -134t-170.5 -44h-4l-23 -45q21 15 50 15q31 0 52 -22t21 -55q0 -38 -25 -60.5t-64 -22.5q-33 0 -55 16t-27 44l39 10q9 -30 45 -30q19 0 30 10.5t11 30.5q0 19 -12 30.5t-31 11.5q-26 0 -49 -20z" />
    <glyph glyph-name="Egrave" unicode="&#xc8;" horiz-adv-x="572" 
d="M505 0h-417v700h414v-52h-354v-260h326v-52h-326v-284h357v-52zM200 904h84l66 -138h-50z" />
    <glyph glyph-name="Eacute" unicode="&#xc9;" horiz-adv-x="572" 
d="M505 0h-417v700h414v-52h-354v-260h326v-52h-326v-284h357v-52zM299 766h-50l66 138h84z" />
    <glyph glyph-name="Ecircumflex" unicode="&#xca;" horiz-adv-x="572" 
d="M505 0h-417v700h414v-52h-354v-260h326v-52h-326v-284h357v-52zM226 766h-50l97 138h50l97 -138h-50l-72 78z" />
    <glyph glyph-name="Edieresis" unicode="&#xcb;" horiz-adv-x="572" 
d="M505 0h-417v700h414v-52h-354v-260h326v-52h-326v-284h357v-52zM413 798h-80v76h80v-76zM265 798h-80v76h80v-76z" />
    <glyph glyph-name="Igrave" unicode="&#xcc;" horiz-adv-x="235" 
d="M148 0h-60v700h60v-700zM1 904h84l66 -138h-50z" />
    <glyph glyph-name="Iacute" unicode="&#xcd;" horiz-adv-x="235" 
d="M148 0h-60v700h60v-700zM136 766h-50l66 138h84z" />
    <glyph glyph-name="Icircumflex" unicode="&#xce;" horiz-adv-x="235" 
d="M148 0h-60v700h60v-700zM46 766h-50l97 138h50l97 -138h-50l-72 78z" />
    <glyph glyph-name="Idieresis" unicode="&#xcf;" horiz-adv-x="235" 
d="M148 0h-60v700h60v-700zM232 798h-80v76h80v-76zM84 798h-80v76h80v-76z" />
    <glyph glyph-name="Eth" unicode="&#xd0;" horiz-adv-x="695" 
d="M113 324h-73v52h73v324h183q154 0 249 -96q95 -95 95 -255q0 -159 -95 -254t-249 -95h-183v324zM173 52h114q137 0 215 76.5t78 220.5q0 148 -80 223q-79 76 -213 76h-114v-272h153v-52h-153v-272z" />
    <glyph glyph-name="Ntilde" unicode="&#xd1;" horiz-adv-x="684" 
d="M146 0h-58v700h64l356 -562q25 -42 30 -55v617h58v-700h-64l-356 562q-22 37 -30 55v-617zM267 838q-32 0 -32 -31q0 -11 5 -23l-49 -10q-10 17 -10 40q0 36 23 55t60 19q58 0 90 -34t64 -34q15 0 23.5 9t8.5 22q0 11 -5 23l49 10q10 -17 10 -40q0 -35 -24 -54.5
t-59 -19.5q-58 0 -91 33q-31 35 -63 35z" />
    <glyph glyph-name="Ograve" unicode="&#xd2;" 
d="M619 613q95 -101 95 -263q0 -163 -95 -264q-94 -100 -235 -100q-140 0 -234 100t-94 264q0 163 94 263q95 101 234 101q140 0 235 -101zM191 124q77 -86 194 -86q118 0 193 86q76 86 76 225q0 140 -76 226q-75 87 -193 87q-117 0 -194 -87q-75 -87 -75 -226
q0 -138 75 -225zM281 904h84l66 -138h-50z" />
    <glyph glyph-name="Oacute" unicode="&#xd3;" 
d="M619 613q95 -101 95 -263q0 -163 -95 -264q-94 -100 -235 -100q-140 0 -234 100t-94 264q0 163 94 263q95 101 234 101q140 0 235 -101zM191 124q77 -86 194 -86q118 0 193 86q76 86 76 225q0 140 -76 226q-75 87 -193 87q-117 0 -194 -87q-75 -87 -75 -226
q0 -138 75 -225zM390 766h-50l66 138h84z" />
    <glyph glyph-name="Ocircumflex" unicode="&#xd4;" 
d="M619 613q95 -101 95 -263q0 -163 -95 -264q-94 -100 -235 -100q-140 0 -234 100t-94 264q0 163 94 263q95 101 234 101q140 0 235 -101zM191 124q77 -86 194 -86q118 0 193 86q76 86 76 225q0 140 -76 226q-75 87 -193 87q-117 0 -194 -87q-75 -87 -75 -226
q0 -138 75 -225zM313 766h-50l97 138h50l97 -138h-50l-72 78z" />
    <glyph glyph-name="Otilde" unicode="&#xd5;" 
d="M619 613q95 -101 95 -263q0 -163 -95 -264q-94 -100 -235 -100q-140 0 -234 100t-94 264q0 163 94 263q95 101 234 101q140 0 235 -101zM191 124q77 -86 194 -86q118 0 193 86q76 86 76 225q0 140 -76 226q-75 87 -193 87q-117 0 -194 -87q-75 -87 -75 -226
q0 -138 75 -225zM310 838q-32 0 -32 -31q0 -11 5 -23l-49 -10q-10 17 -10 40q0 36 23 55t60 19q58 0 90 -34t64 -34q15 0 23.5 9t8.5 22q0 11 -5 23l49 10q10 -17 10 -40q0 -35 -24 -54.5t-59 -19.5q-58 0 -91 33q-31 35 -63 35z" />
    <glyph glyph-name="Odieresis" unicode="&#xd6;" 
d="M619 613q95 -101 95 -263q0 -163 -95 -264q-94 -100 -235 -100q-140 0 -234 100t-94 264q0 163 94 263q95 101 234 101q140 0 235 -101zM191 124q77 -86 194 -86q118 0 193 86q76 86 76 225q0 140 -76 226q-75 87 -193 87q-117 0 -194 -87q-75 -87 -75 -226
q0 -138 75 -225zM499 798h-80v76h80v-76zM351 798h-80v76h80v-76z" />
    <glyph glyph-name="multiply" unicode="&#xd7;" horiz-adv-x="480" 
d="M240 332l-122 -122l-32 33l121 121l-121 122l32 33l122 -122l122 122l33 -32l-123 -123l123 -122l-33 -32z" />
    <glyph glyph-name="Oslash" unicode="&#xd8;" 
d="M714 350q0 -163 -95 -264q-94 -100 -234 -100q-79 0 -143 32l-22 -42l-48 26l23 44q-66 48 -102.5 126.5t-36.5 177.5q0 163 94 263q95 101 235 101q77 0 143 -32l22 42l48 -26l-23 -44q66 -46 102.5 -125.5t36.5 -178.5zM116 350q0 -170 105 -255l282 540
q-55 27 -118 27q-117 0 -194 -87q-75 -87 -75 -225zM385 38q118 0 193 86q76 86 76 226q0 170 -105 255l-282 -540q54 -27 118 -27z" />
    <glyph glyph-name="Ugrave" unicode="&#xd9;" horiz-adv-x="653" 
d="M518 700h60v-465q0 -117 -67 -183t-184 -66t-184 66t-67 183v465h60v-464q0 -89 53 -144q53 -54 138 -54t138 54q53 55 53 144v464zM222 904h84l66 -138h-50z" />
    <glyph glyph-name="Uacute" unicode="&#xda;" horiz-adv-x="653" 
d="M518 700h60v-465q0 -117 -67 -183t-184 -66t-184 66t-67 183v465h60v-464q0 -89 53 -144q53 -54 138 -54t138 54q53 55 53 144v464zM332 766h-50l66 138h84z" />
    <glyph glyph-name="Ucircumflex" unicode="&#xdb;" horiz-adv-x="653" 
d="M518 700h60v-465q0 -117 -67 -183t-184 -66t-184 66t-67 183v465h60v-464q0 -89 53 -144q53 -54 138 -54t138 54q53 55 53 144v464zM255 766h-50l97 138h50l97 -138h-50l-72 78z" />
    <glyph glyph-name="Udieresis" unicode="&#xdc;" horiz-adv-x="653" 
d="M518 700h60v-465q0 -117 -67 -183t-184 -66t-184 66t-67 183v465h60v-464q0 -89 53 -144q53 -54 138 -54t138 54q53 55 53 144v464zM441 798h-80v76h80v-76zM293 798h-80v76h80v-76z" />
    <glyph glyph-name="Yacute" unicode="&#xdd;" horiz-adv-x="525" 
d="M293 0h-60v292l-229 408h64l173 -318q13 -21 22 -46l22 46l173 318h64l-229 -408v-292zM258 766h-50l66 138h84z" />
    <glyph glyph-name="Thorn" unicode="&#xde;" horiz-adv-x="660" 
d="M148 0h-60v700h60v-135h221q108 0 173 -59t65 -157q0 -97 -65 -156q-64 -58 -173 -58h-221v-135zM367 513h-219v-326h219q89 0 134.5 41.5t45.5 120.5t-45.5 121.5t-134.5 42.5z" />
    <glyph glyph-name="germandbls" unicode="&#xdf;" horiz-adv-x="584" 
d="M270 356h-21v52h20q75 0 119.5 37.5t44.5 102.5q0 52 -37.5 84t-95.5 32q-61 0 -96.5 -38t-35.5 -109v-517h-58v452h-85v44h85v18q0 98 56 149q57 51 134 51q84 0 136.5 -46t52.5 -119q0 -61 -35.5 -103.5t-92.5 -57.5q173 -50 173 -205q0 -81 -50 -140q-50 -57 -136 -57
q-82 0 -149 53l30 48q53 -51 117 -51q59 0 94.5 39.5t35.5 104.5q0 85 -59 130q-58 46 -147 46z" />
    <glyph glyph-name="agrave" unicode="&#xe0;" horiz-adv-x="528" 
d="M482 0h-58q-32 40 -32 107q-18 -52 -69 -86q-50 -35 -106 -35q-75 0 -120 42t-45 109q0 64 45.5 105t119.5 53l177 29v24q0 53 -34 81.5t-95 28.5t-97 -26.5t-36 -66.5q0 -5 2 -15l-47 -16q-7 17 -7 38q0 59 52 98q52 40 133 40q89 0 138 -41.5t49 -114.5v-230
q0 -73 30 -124zM222 40q79 0 125 64q47 65 47 145v25l-167 -28q-56 -10 -86.5 -38t-30.5 -70q0 -43 31 -70.5t81 -27.5zM150 700h84l66 -138h-50z" />
    <glyph glyph-name="aacute" unicode="&#xe1;" horiz-adv-x="528" 
d="M482 0h-58q-32 40 -32 107q-18 -52 -69 -86q-50 -35 -106 -35q-75 0 -120 42t-45 109q0 64 45.5 105t119.5 53l177 29v24q0 53 -34 81.5t-95 28.5t-97 -26.5t-36 -66.5q0 -5 2 -15l-47 -16q-7 17 -7 38q0 59 52 98q52 40 133 40q89 0 138 -41.5t49 -114.5v-230
q0 -73 30 -124zM222 40q79 0 125 64q47 65 47 145v25l-167 -28q-56 -10 -86.5 -38t-30.5 -70q0 -43 31 -70.5t81 -27.5zM268 562h-50l66 138h84z" />
    <glyph glyph-name="acircumflex" unicode="&#xe2;" horiz-adv-x="528" 
d="M482 0h-58q-32 40 -32 107q-18 -52 -69 -86q-50 -35 -106 -35q-75 0 -120 42t-45 109q0 64 45.5 105t119.5 53l177 29v24q0 53 -34 81.5t-95 28.5t-97 -26.5t-36 -66.5q0 -5 2 -15l-47 -16q-7 17 -7 38q0 59 52 98q52 40 133 40q89 0 138 -41.5t49 -114.5v-230
q0 -73 30 -124zM222 40q79 0 125 64q47 65 47 145v25l-167 -28q-56 -10 -86.5 -38t-30.5 -70q0 -43 31 -70.5t81 -27.5zM192 562h-50l97 138h50l97 -138h-50l-72 78z" />
    <glyph glyph-name="atilde" unicode="&#xe3;" horiz-adv-x="528" 
d="M482 0h-58q-32 40 -32 107q-18 -52 -69 -86q-50 -35 -106 -35q-75 0 -120 42t-45 109q0 64 45.5 105t119.5 53l177 29v24q0 53 -34 81.5t-95 28.5t-97 -26.5t-36 -66.5q0 -5 2 -15l-47 -16q-7 17 -7 38q0 59 52 98q52 40 133 40q89 0 138 -41.5t49 -114.5v-230
q0 -73 30 -124zM222 40q79 0 125 64q47 65 47 145v25l-167 -28q-56 -10 -86.5 -38t-30.5 -70q0 -43 31 -70.5t81 -27.5zM183 634q-32 0 -32 -31q0 -11 5 -23l-49 -10q-10 17 -10 40q0 35 24 54.5t59 19.5q58 0 90 -34t64 -34q15 0 23.5 9t8.5 22q0 11 -5 23l49 10
q10 -17 10 -40q0 -35 -24 -54.5t-59 -19.5q-57 0 -91 34q-32 34 -63 34z" />
    <glyph glyph-name="adieresis" unicode="&#xe4;" horiz-adv-x="528" 
d="M482 0h-58q-32 40 -32 107q-18 -52 -69 -86q-50 -35 -106 -35q-75 0 -120 42t-45 109q0 64 45.5 105t119.5 53l177 29v24q0 53 -34 81.5t-95 28.5t-97 -26.5t-36 -66.5q0 -5 2 -15l-47 -16q-7 17 -7 38q0 59 52 98q52 40 133 40q89 0 138 -41.5t49 -114.5v-230
q0 -73 30 -124zM222 40q79 0 125 64q47 65 47 145v25l-167 -28q-56 -10 -86.5 -38t-30.5 -70q0 -43 31 -70.5t81 -27.5zM378 594h-80v76h80v-76zM230 594h-80v76h80v-76z" />
    <glyph glyph-name="aring" unicode="&#xe5;" horiz-adv-x="528" 
d="M482 0h-58q-32 40 -32 107q-18 -52 -69 -86q-50 -35 -106 -35q-75 0 -120 42t-45 109q0 64 45.5 105t119.5 53l177 29v24q0 53 -34 81.5t-95 28.5t-97 -26.5t-36 -66.5q0 -5 2 -15l-47 -16q-7 17 -7 38q0 59 52 98q52 40 133 40q89 0 138 -41.5t49 -114.5v-230
q0 -73 30 -124zM222 40q79 0 125 64q47 65 47 145v25l-167 -28q-56 -10 -86.5 -38t-30.5 -70q0 -43 31 -70.5t81 -27.5zM264 730q40 0 68 -28t28 -67t-28 -67t-68 -28t-68 28t-28 67t28.5 67t67.5 28zM227 673q-15 -16 -15 -38.5t14 -37.5q15 -15 37.5 -15t37.5 15t15 37.5
t-15 37.5q-15 16 -37.5 16t-36.5 -15z" />
    <glyph glyph-name="ae" unicode="&#xe6;" horiz-adv-x="921" 
d="M877 262v-19h-423q3 -88 54 -148q51 -59 133 -59q125 0 180 120l42 -25q-70 -145 -225 -145q-70 0 -127 39.5t-88 104.5q-24 -66 -82 -105q-59 -39 -122 -39q-75 0 -121 42t-46 106q0 72 55 115q56 44 143 44h144v55q0 53 -33.5 81.5t-93.5 28.5q-62 0 -97 -25.5
t-35 -65.5q0 -5 2 -15l-47 -16q-7 15 -7 38q0 58 52 97q53 39 132 39q69 0 115 -27t62 -76q70 103 197 103q109 0 172 -69q64 -68 64 -179zM641 460q-71 0 -124 -48q-52 -46 -63 -119h360q-2 80 -52 123q-52 44 -121 44zM224 40q80 0 125 62t45 141h-133q-75 0 -113 -29
t-38 -80q0 -40 32 -67t82 -27z" />
    <glyph glyph-name="ccedilla" unicode="&#xe7;" horiz-adv-x="550" 
d="M251 -101l-28 27l24 64q-92 17 -149 87q-56 71 -56 171q0 113 73 187q74 75 178 75q77 0 133.5 -36t84.5 -100l-44 -28q-54 112 -172 112q-83 0 -138 -58q-55 -56 -55 -152q0 -94 54 -152t139 -58q111 0 174 119l43 -28q-33 -67 -90.5 -105t-128.5 -38h-4l-23 -45
q20 15 50 15q32 0 52.5 -21.5t20.5 -55.5q0 -38 -25 -60.5t-64 -22.5q-32 0 -54 16t-28 44l39 10q11 -30 45 -30q18 0 29.5 10.5t11.5 30.5q0 19 -12 30.5t-31 11.5q-26 0 -49 -20z" />
    <glyph glyph-name="egrave" unicode="&#xe8;" horiz-adv-x="566" 
d="M523 262v-19h-423q3 -88 54 -148q51 -59 133 -59q123 0 180 120l42 -25q-70 -145 -225 -145q-101 0 -172 74q-70 74 -70 188q0 113 71 187q71 75 174 75q109 0 172 -69q64 -68 64 -179zM287 460q-71 0 -124 -48q-52 -48 -63 -119h360q-2 80 -52 123q-52 44 -121 44z
M179 700h84l66 -138h-50z" />
    <glyph glyph-name="eacute" unicode="&#xe9;" horiz-adv-x="566" 
d="M523 262v-19h-423q3 -88 54 -148q51 -59 133 -59q123 0 180 120l42 -25q-70 -145 -225 -145q-101 0 -172 74q-70 74 -70 188q0 113 71 187q71 75 174 75q109 0 172 -69q64 -68 64 -179zM287 460q-71 0 -124 -48q-52 -48 -63 -119h360q-2 80 -52 123q-52 44 -121 44z
M287 562h-50l66 138h84z" />
    <glyph glyph-name="ecircumflex" unicode="&#xea;" horiz-adv-x="566" 
d="M523 262v-19h-423q3 -88 54 -148q51 -59 133 -59q123 0 180 120l42 -25q-70 -145 -225 -145q-101 0 -172 74q-70 74 -70 188q0 113 71 187q71 75 174 75q109 0 172 -69q64 -68 64 -179zM287 460q-71 0 -124 -48q-52 -48 -63 -119h360q-2 80 -52 123q-52 44 -121 44z
M211 562h-50l97 138h50l97 -138h-50l-72 78z" />
    <glyph glyph-name="edieresis" unicode="&#xeb;" horiz-adv-x="566" 
d="M523 262v-19h-423q3 -88 54 -148q51 -59 133 -59q123 0 180 120l42 -25q-70 -145 -225 -145q-101 0 -172 74q-70 74 -70 188q0 113 71 187q71 75 174 75q109 0 172 -69q64 -68 64 -179zM287 460q-71 0 -124 -48q-52 -48 -63 -119h360q-2 80 -52 123q-52 44 -121 44z
M397 594h-80v76h80v-76zM249 594h-80v76h80v-76z" />
    <glyph glyph-name="igrave" unicode="&#xec;" horiz-adv-x="210" 
d="M134 0h-58v496h58v-496zM-16 700h84l66 -138h-50z" />
    <glyph glyph-name="iacute" unicode="&#xed;" horiz-adv-x="210" 
d="M134 0h-58v496h58v-496zM125 562h-50l66 138h84z" />
    <glyph glyph-name="icircumflex" unicode="&#xee;" horiz-adv-x="210" 
d="M134 0h-58v496h58v-496zM33 562h-50l97 138h50l97 -138h-50l-72 78z" />
    <glyph glyph-name="idieresis" unicode="&#xef;" horiz-adv-x="210" 
d="M134 0h-58v496h58v-496zM219 594h-80v76h80v-76zM71 594h-80v76h80v-76z" />
    <glyph glyph-name="eth" unicode="&#xf0;" horiz-adv-x="573" 
d="M354 570l-137 -53l-17 47l113 44q-64 54 -148 92l26 42q108 -53 177 -113l96 37l18 -47l-75 -29q118 -125 118 -316q0 -75 -21 -133t-56.5 -90.5t-76 -48.5t-85.5 -16q-97 0 -167 61t-70 177q0 114 70 175q71 63 162 63q64 0 113.5 -27.5t72.5 -71.5q-20 112 -113 207z
M160 86q55 -50 126 -50q72 0 125 50q54 50 54 138t-54 138q-53 50 -125 50q-71 0 -126 -50q-53 -50 -53 -138t53 -138z" />
    <glyph glyph-name="ntilde" unicode="&#xf1;" horiz-adv-x="558" 
d="M482 337v-337h-58v331q0 61 -35.5 95t-94.5 34q-64 0 -112 -53t-48 -126v-281h-58v496h58v-92q27 49 73.5 77.5t100.5 28.5q75 0 124 -43q50 -42 50 -130zM203 634q-15 0 -23.5 -9t-8.5 -22q0 -11 5 -23l-49 -10q-10 16 -10 40q0 35 24 54.5t59 19.5q58 0 90 -34
q34 -34 64 -34q15 0 23.5 9t8.5 22q0 11 -5 23l49 10q10 -19 10 -40q0 -35 -23 -54.5t-60 -19.5q-58 0 -90 34t-64 34z" />
    <glyph glyph-name="ograve" unicode="&#xf2;" horiz-adv-x="592" 
d="M476 438q74 -71 74 -190q0 -120 -75 -191q-74 -71 -180 -71q-105 0 -179 71t-74 191t74 191t179 71q106 0 181 -72zM155 96q55 -60 141 -60q84 0 140 60q56 61 56 152t-56 152q-56 60 -140 60q-86 0 -141 -60q-55 -59 -55 -152t55 -152zM183 700h84l66 -138h-50z" />
    <glyph glyph-name="oacute" unicode="&#xf3;" horiz-adv-x="592" 
d="M476 438q74 -71 74 -190q0 -120 -75 -191q-74 -71 -180 -71q-105 0 -179 71t-74 191t74 191t179 71q106 0 181 -72zM155 96q55 -60 141 -60q84 0 140 60q56 61 56 152t-56 152q-56 60 -140 60q-86 0 -141 -60q-55 -59 -55 -152t55 -152zM310 562h-50l66 138h84z" />
    <glyph glyph-name="ocircumflex" unicode="&#xf4;" horiz-adv-x="592" 
d="M476 438q74 -71 74 -190q0 -120 -75 -191q-74 -71 -180 -71q-105 0 -179 71t-74 191t74 191t179 71q106 0 181 -72zM155 96q55 -60 141 -60q84 0 140 60q56 61 56 152t-56 152q-56 60 -140 60q-86 0 -141 -60q-55 -59 -55 -152t55 -152zM224 562h-50l97 138h50l97 -138
h-50l-72 78z" />
    <glyph glyph-name="otilde" unicode="&#xf5;" horiz-adv-x="592" 
d="M476 438q74 -71 74 -190q0 -120 -75 -191q-74 -71 -180 -71q-105 0 -179 71t-74 191t74 191t179 71q106 0 181 -72zM155 96q55 -60 141 -60q84 0 140 60q56 61 56 152t-56 152q-56 60 -140 60q-86 0 -141 -60q-55 -59 -55 -152t55 -152zM221 634q-32 0 -32 -31
q0 -11 5 -23l-49 -10q-10 16 -10 40q0 35 24 54.5t59 19.5q58 0 90 -34t64 -34q15 0 23.5 9t8.5 22q0 11 -5 23l49 10q10 -17 10 -40q0 -35 -24 -54.5t-59 -19.5q-57 0 -91 34q-32 34 -63 34z" />
    <glyph glyph-name="odieresis" unicode="&#xf6;" horiz-adv-x="592" 
d="M476 438q74 -71 74 -190q0 -120 -75 -191q-74 -71 -180 -71q-105 0 -179 71t-74 191t74 191t179 71q106 0 181 -72zM155 96q55 -60 141 -60q84 0 140 60q56 61 56 152t-56 152q-56 60 -140 60q-86 0 -141 -60q-55 -59 -55 -152t55 -152zM410 594h-80v76h80v-76zM262 594
h-80v76h80v-76z" />
    <glyph glyph-name="divide" unicode="&#xf7;" horiz-adv-x="486" 
d="M283 390h-80v82h80v-82zM283 0h-80v82h80v-82zM439 215h-391v46h391v-46z" />
    <glyph glyph-name="oslash" unicode="&#xf8;" horiz-adv-x="592" 
d="M550 248q0 -120 -75 -191q-74 -71 -179 -71q-56 0 -110 23l-22 -38l-47 26l23 39q-98 75 -98 212q0 120 74 191t180 71q56 0 110 -23l22 38l47 -26l-23 -39q98 -75 98 -212zM100 248q0 -102 68 -164l211 358q-38 18 -83 18q-86 0 -141 -60q-55 -59 -55 -152zM296 36
q84 0 140 60q56 61 56 152q0 102 -68 164l-211 -358q38 -18 83 -18z" />
    <glyph glyph-name="ugrave" unicode="&#xf9;" horiz-adv-x="556" 
d="M76 164v332h58v-331q0 -60 35 -94.5t93 -34.5q66 0 112 54q48 54 48 138v268h58v-496h-58v91q-25 -48 -71 -76.5t-99 -28.5q-79 0 -127.5 45.5t-48.5 132.5zM174 700h84l66 -138h-50z" />
    <glyph glyph-name="uacute" unicode="&#xfa;" horiz-adv-x="556" 
d="M76 164v332h58v-331q0 -60 35 -94.5t93 -34.5q66 0 112 54q48 54 48 138v268h58v-496h-58v91q-25 -48 -71 -76.5t-99 -28.5q-79 0 -127.5 45.5t-48.5 132.5zM282 562h-50l66 138h84z" />
    <glyph glyph-name="ucircumflex" unicode="&#xfb;" horiz-adv-x="556" 
d="M76 164v332h58v-331q0 -60 35 -94.5t93 -34.5q66 0 112 54q48 54 48 138v268h58v-496h-58v91q-25 -48 -71 -76.5t-99 -28.5q-79 0 -127.5 45.5t-48.5 132.5zM205 562h-50l97 138h50l97 -138h-50l-72 78z" />
    <glyph glyph-name="udieresis" unicode="&#xfc;" horiz-adv-x="556" 
d="M76 164v332h58v-331q0 -60 35 -94.5t93 -34.5q66 0 112 54q48 54 48 138v268h58v-496h-58v91q-25 -48 -71 -76.5t-99 -28.5q-79 0 -127.5 45.5t-48.5 132.5zM391 594h-80v76h80v-76zM243 594h-80v76h80v-76z" />
    <glyph glyph-name="yacute" unicode="&#xfd;" horiz-adv-x="477" 
d="M56 -201l10 53q21 -8 36 -8q43 0 64 53l42 103l-203 496h65l168 -421l170 421h63l-254 -616q-21 -48 -46.5 -69t-66.5 -21q-26 0 -48 9zM243 562h-50l66 138h84z" />
    <glyph glyph-name="thorn" unicode="&#xfe;" horiz-adv-x="594" 
d="M134 -204h-58v904h58v-304q24 50 74 82t110 32q101 0 167 -76q67 -74 67 -186t-66 -187t-169 -75q-61 0 -109.5 27t-73.5 76v-293zM441 400q-50 60 -131 60t-132 -60q-50 -59 -50 -152q0 -92 50 -153q51 -59 132 -59t131 59q51 59 51 153t-51 152z" />
    <glyph glyph-name="ydieresis" unicode="&#xff;" horiz-adv-x="477" 
d="M56 -201l10 53q21 -8 36 -8q43 0 64 53l42 103l-203 496h65l168 -421l170 421h63l-254 -616q-21 -48 -46.5 -69t-66.5 -21q-26 0 -48 9zM352 594h-80v76h80v-76zM204 594h-80v76h80v-76z" />
    <glyph glyph-name="OE" unicode="&#x152;" horiz-adv-x="1139" 
d="M1071 0h-417v150q-89 -164 -269 -164q-141 0 -235 100t-94 264q0 163 94 263q95 101 235 101q93 0 162.5 -40.5t106.5 -114.5v141h414v-52h-354v-260h326v-52h-326v-284h357v-52zM191 124q77 -86 194 -86q118 0 193 86q76 86 76 225q0 140 -76 226q-75 87 -193 87
q-117 0 -194 -87q-75 -87 -75 -226q0 -138 75 -225z" />
    <glyph glyph-name="oe" unicode="&#x153;" horiz-adv-x="1014" 
d="M970 262v-19h-424q3 -88 54 -148q51 -59 134 -59q123 0 180 120l42 -25q-70 -145 -225 -145q-68 0 -124 35t-87 95q-33 -61 -93 -95.5t-131 -34.5q-106 0 -180 71t-74 191t74 191t180 71q72 0 131 -34t92 -96q33 60 90 95t125 35q110 0 173 -69t63 -179zM155 96
q55 -60 141 -60q84 0 140 60q56 61 56 152t-56 152q-56 60 -140 60q-86 0 -141 -60q-55 -59 -55 -152t55 -152zM734 460q-72 0 -124 -48q-54 -49 -64 -119h361q-2 80 -52 123q-50 44 -121 44z" />
    <glyph glyph-name="Ydieresis" unicode="&#x178;" horiz-adv-x="525" 
d="M293 0h-60v292l-229 408h64l173 -318q13 -21 22 -46l22 46l173 318h64l-229 -408v-292zM377 798h-80v76h80v-76zM229 798h-80v76h80v-76z" />
    <glyph glyph-name="circumflex" unicode="&#x2c6;" horiz-adv-x="354" 
d="M105 562h-50l97 138h50l97 -138h-50l-72 78z" />
    <glyph glyph-name="tilde" unicode="&#x2dc;" horiz-adv-x="463" 
d="M156 634q-15 0 -23.5 -9t-8.5 -22q0 -11 5 -23l-49 -10q-10 16 -10 40q0 35 24 54.5t59 19.5q58 0 90 -34q34 -34 64 -34q15 0 23.5 9t8.5 22q0 11 -5 23l49 10q10 -17 10 -40q0 -35 -24 -54.5t-59 -19.5q-59 0 -91 34t-63 34z" />
    <glyph glyph-name="uni2000" unicode="&#x2000;" horiz-adv-x="467" 
 />
    <glyph glyph-name="uni2001" unicode="&#x2001;" horiz-adv-x="934" 
 />
    <glyph glyph-name="uni2002" unicode="&#x2002;" horiz-adv-x="467" 
 />
    <glyph glyph-name="uni2003" unicode="&#x2003;" horiz-adv-x="934" 
 />
    <glyph glyph-name="uni2004" unicode="&#x2004;" horiz-adv-x="311" 
 />
    <glyph glyph-name="uni2005" unicode="&#x2005;" horiz-adv-x="233" 
 />
    <glyph glyph-name="uni2006" unicode="&#x2006;" horiz-adv-x="155" 
 />
    <glyph glyph-name="uni2007" unicode="&#x2007;" horiz-adv-x="155" 
 />
    <glyph glyph-name="uni2008" unicode="&#x2008;" horiz-adv-x="116" 
 />
    <glyph glyph-name="uni2009" unicode="&#x2009;" horiz-adv-x="187" 
 />
    <glyph glyph-name="uni200A" unicode="&#x200a;" horiz-adv-x="52" 
 />
    <glyph glyph-name="uni2010" unicode="&#x2010;" horiz-adv-x="445" 
d="M398 288h-350v46h350v-46z" />
    <glyph glyph-name="uni2011" unicode="&#x2011;" horiz-adv-x="445" 
d="M398 288h-350v46h350v-46z" />
    <glyph glyph-name="figuredash" unicode="&#x2012;" horiz-adv-x="445" 
d="M398 288h-350v46h350v-46z" />
    <glyph glyph-name="endash" unicode="&#x2013;" horiz-adv-x="502" 
d="M454 288h-406v46h406v-46z" />
    <glyph glyph-name="emdash" unicode="&#x2014;" 
d="M722 288h-674v46h674v-46z" />
    <glyph glyph-name="quoteleft" unicode="&#x2018;" horiz-adv-x="183" 
d="M45 592l87 115l17 -13l-57 -102h33v-82h-80v82z" />
    <glyph glyph-name="quoteright" unicode="&#x2019;" horiz-adv-x="183" 
d="M138 618l-87 -115l-17 13l57 102h-33v82h80v-82z" />
    <glyph glyph-name="quotesinglbase" unicode="&#x201a;" horiz-adv-x="183" 
d="M138 0l-87 -115l-17 13l57 102h-33v82h80v-82z" />
    <glyph glyph-name="quotedblleft" unicode="&#x201c;" horiz-adv-x="297" 
d="M45 592l87 115l17 -13l-57 -102h33v-82h-80v82zM159 592l87 115l17 -13l-57 -102h33v-82h-80v82z" />
    <glyph glyph-name="quotedblright" unicode="&#x201d;" horiz-adv-x="297" 
d="M252 618l-87 -115l-17 13l57 102h-33v82h80v-82zM138 618l-87 -115l-17 13l57 102h-33v82h80v-82z" />
    <glyph glyph-name="quotedblbase" unicode="&#x201e;" horiz-adv-x="297" 
d="M252 0l-87 -115l-17 13l57 102h-33v82h80v-82zM138 0l-87 -115l-17 13l57 102h-33v82h80v-82z" />
    <glyph glyph-name="bullet" unicode="&#x2022;" horiz-adv-x="262" 
d="M75 220q-23 23 -23 55.5t23 55.5q24 23 56 23t55 -23q24 -23 24 -55.5t-24 -56.5q-23 -23 -55 -23t-56 24z" />
    <glyph glyph-name="ellipsis" unicode="&#x2026;" horiz-adv-x="550" 
d="M128 0h-80v82h80v-82zM315 0h-80v82h80v-82zM502 0h-80v82h80v-82z" />
    <glyph glyph-name="uni202F" unicode="&#x202f;" horiz-adv-x="187" 
 />
    <glyph glyph-name="guilsinglleft" unicode="&#x2039;" horiz-adv-x="306" 
d="M48 275l152 194h70l-151 -194l151 -194h-70z" />
    <glyph glyph-name="guilsinglright" unicode="&#x203a;" horiz-adv-x="306" 
d="M187 275l-151 194h70l152 -194l-152 -194h-70z" />
    <glyph glyph-name="uni205F" unicode="&#x205f;" horiz-adv-x="233" 
 />
    <glyph glyph-name="Euro" unicode="&#x20ac;" horiz-adv-x="735" 
d="M627 208l49 -18q-31 -98 -96 -151t-163 -53q-113 0 -192 73q-78 72 -104 192h-79l21 48h50q-2 42 -2 51q0 27 3 51h-72l21 48h58q27 117 108 191q83 74 193 74q100 0 167 -50t91 -136l-49 -20q-46 154 -210 154q-87 0 -151 -57.5t-89 -155.5h300l-21 -48h-286
q-3 -25 -3 -51q0 -31 2 -51h308l-21 -48h-279q24 -100 85.5 -156.5t151.5 -56.5q81 0 131.5 42t77.5 128z" />
    <glyph glyph-name="trademark" unicode="&#x2122;" horiz-adv-x="841" 
d="M161 660h-123v40h294v-40h-123v-360h-48v360zM435 300h-42v400h45l152 -358l152 358h45v-400h-42v314l-132 -314h-46l-132 314v-314z" />
    <glyph glyph-name="uni25FC" unicode="&#x25fc;" horiz-adv-x="494" 
d="M0 0v495h495v-495h-495z" />
    </font>
</defs>
</svg>
